# xmcd
#
# Track frame offsets:
# 150
# 12251
# 33678
# 48190
# 72480
# 89405
# 107974
# 130521
# 147901
#
# Disc length: 2212 seconds
#
# Revision: 0
# Processed by: cddbd v1.4PL0 Copyright (c) Steve Scherf et al.
# Submitted via: Audion 3.0.2 (http://www.panic.com/audion/)
#
DISCID=7b08a209
DTITLE=Jeramie Crawford - Fog and High Beams
DYEAR=1900
DGENRE=
TTITLE0=Boxcars
TTITLE1=Hearts Desire
TTITLE2=Home
TTITLE3=East Dallas Girl
TTITLE4=Fog and High beams
TTITLE5=Johnny Walker
TTITLE6=Only Music
TTITLE7=U.S. of Texas
TTITLE8=L.A. Story
EXTD=
EXTT0=
EXTT1=
EXTT2=
EXTT3=
EXTT4=
EXTT5=
EXTT6=
EXTT7=
EXTT8=
PLAYORDER=
